<svg width="89" height="15" viewBox="0 0 89 15" fill="none" xmlns="http://www.w3.org/2000/svg">
<path d="M2.91485 14.7653L4.11906 9.55941L0.0803223 6.05793L5.4159 5.59478L7.49085 0.685303L9.5658 5.59478L14.9014 6.05793L10.8626 9.55941L12.0668 14.7653L7.49085 12.0049L2.91485 14.7653Z" fill="#F48120"/>
<path d="M21.547 14.7653L22.7512 9.55941L18.7125 6.05793L24.048 5.59478L26.123 0.685303L28.1979 5.59478L33.5335 6.05793L29.4948 9.55941L30.699 14.7653L26.123 12.0049L21.547 14.7653Z" fill="#F48120"/>
<path d="M40.1789 14.7653L41.3831 9.55941L37.3443 6.05793L42.6799 5.59478L44.7549 0.685303L46.8298 5.59478L52.1654 6.05793L48.1267 9.55941L49.3309 14.7653L44.7549 12.0049L40.1789 14.7653Z" fill="#F48120"/>
<path d="M58.8115 14.7653L60.0158 9.55941L55.977 6.05793L61.3126 5.59478L63.3875 0.685303L65.4625 5.59478L70.7981 6.05793L66.7593 9.55941L67.9635 14.7653L63.3875 12.0049L58.8115 14.7653Z" fill="#F48120"/>
<path d="M76.5967 14.7653L77.8009 9.55941L73.7621 6.05793L79.0977 5.59478L81.1727 0.685303L83.2476 5.59478L88.5832 6.05793L84.5445 9.55941L85.7487 14.7653L81.1727 12.0049L76.5967 14.7653Z" fill="#F48120"/>
</svg>
