<svg width="19" height="19" viewBox="0 0 19 19" fill="none" xmlns="http://www.w3.org/2000/svg">
<path fill-rule="evenodd" clip-rule="evenodd" d="M9.08032 18.4604C10.2622 18.4604 11.4325 18.2277 12.5245 17.7754C13.6164 17.3231 14.6086 16.6601 15.4443 15.8244C16.28 14.9887 16.9429 13.9965 17.3952 12.9046C17.8475 11.8127 18.0803 10.6423 18.0803 9.46045C18.0803 8.27855 17.8475 7.10823 17.3952 6.0163C16.9429 4.92437 16.28 3.93222 15.4443 3.09649C14.6086 2.26076 13.6164 1.59783 12.5245 1.14553C11.4325 0.693241 10.2622 0.460449 9.08032 0.460449C6.69337 0.460449 4.40419 1.40866 2.71636 3.09649C1.02853 4.78432 0.0803223 7.0735 0.0803223 9.46045C0.0803223 11.8474 1.02853 14.1366 2.71636 15.8244C4.40419 17.5122 6.69337 18.4604 9.08032 18.4604ZM8.84832 13.1004L13.8483 7.10045L12.3123 5.82045L8.01232 10.9794L5.78732 8.75345L4.37332 10.1674L7.37332 13.1674L8.14732 13.9415L8.84832 13.1004Z" fill="#F48120"/>
</svg>
